<svg id="Capa_1" data-name="Capa 1" xmlns="http://www.w3.org/2000/svg" width="128" height="128" viewBox="0 0 512 512"><defs><style>.cls-1{fill:#fff;}</style></defs><title>camera</title><path class="cls-1" d="M175.14,267v41c0,9.59,8.83,16.61,18.41,16.61H277.5c9.59,0,16.37-7,16.37-16.61v-.55l30.91,15.35a3.1,3.1,0,0,0,1.59.44c6,0,10.49-4.9,10.49-11.16V259c0-6.26-4.21-11.16-10.23-11.16a3.11,3.11,0,0,0-1.58.44l-30.59,15.44a17.33,17.33,0,0,0-16.2-14.1A34.41,34.41,0,1,0,225,211.9a26.06,26.06,0,0,0-44.55,18.37c0,7.92,3,15,8.64,19.79C181.4,251.87,175.14,258.76,175.14,267Zm151.72-10.83a2.84,2.84,0,0,1,1.8,2.86v53a2.85,2.85,0,0,1-1.8,2.87l-33-16.67V272.74Zm-97-15.15a32,32,0,0,0,7.68,7.81H224A24.44,24.44,0,0,0,229.88,241Zm1.82-19.1a26.4,26.4,0,1,1,.79,6.27,25.83,25.83,0,0,0-.68-4.15C231.75,223.33,231.7,222.62,231.7,221.9Zm-25.18-9.52a17.91,17.91,0,0,1,17.16,12.89,34.22,34.22,0,0,0,.68,4.15c0,.28,0,.56,0,.85a17.89,17.89,0,1,1-17.89-17.89Zm79.16,94.77a9.2,9.2,0,0,1-9.2,9.2H192.54a9.2,9.2,0,0,1-9.2-9.2v-41a9.2,9.2,0,0,1,9.2-9.2h83.94a9.2,9.2,0,0,1,9.2,9.2Z"/></svg>