<svg id="Capa_1" data-name="Capa 1" xmlns="http://www.w3.org/2000/svg" width="128" height="128"  viewBox="0 0 512 512"><defs><style>.cls-1{fill:#fff;}</style></defs><title>clapperboard</title><path class="cls-1" d="M328.37,237.07H189.75a3.15,3.15,0,0,0-3.15,3.15v75.61a15.77,15.77,0,0,0,15.75,15.75H315.77a15.77,15.77,0,0,0,15.75-15.75V240.22A3.15,3.15,0,0,0,328.37,237.07Zm-3.15,78.76a9.46,9.46,0,0,1-9.45,9.45H202.36a9.46,9.46,0,0,1-9.45-9.45V243.37H325.22Z"/><path class="cls-1" d="M331.42,207.92l-5.36-20.34a9.52,9.52,0,0,0-11.3-6.92L187.83,210.77a9.44,9.44,0,0,0-7.06,11.51l5.94,23.46a3.14,3.14,0,0,0,3,2.38,3.11,3.11,0,0,0,.78-.09,3.14,3.14,0,0,0,2.27-3.82l-.35-1.37,136.6-31a3.16,3.16,0,0,0,2.35-3.88Zm-140.5,28.81-4-16a3.16,3.16,0,0,1,2.38-3.85l126.93-30.11a2.84,2.84,0,0,1,.69-.08,3.19,3.19,0,0,1,3.07,2.43l4.54,17.23Z"/><path class="cls-1" d="M216.37,237.4a3.18,3.18,0,0,0-4.23,1.41L199.53,264a3.15,3.15,0,0,0,5.65,2.82l12.6-25.2A3.16,3.16,0,0,0,216.37,237.4Z"/><path class="cls-1" d="M247.87,237.4a3.17,3.17,0,0,0-4.23,1.41L231,264a3.15,3.15,0,1,0,5.64,2.82l12.6-25.2A3.16,3.16,0,0,0,247.87,237.4Z"/><path class="cls-1" d="M279.37,237.4a3.17,3.17,0,0,0-4.23,1.41L262.54,264a3.15,3.15,0,1,0,5.64,2.82l12.6-25.2A3.16,3.16,0,0,0,279.37,237.4Z"/><path class="cls-1" d="M310.87,237.4a3.17,3.17,0,0,0-4.23,1.41L294,264a3.15,3.15,0,1,0,5.64,2.82l12.6-25.2A3.16,3.16,0,0,0,310.87,237.4Z"/><path class="cls-1" d="M328.37,262.27H189.75a3.15,3.15,0,1,0,0,6.3H328.37a3.15,3.15,0,1,0,0-6.3Z"/><path class="cls-1" d="M220.22,231.57l-21.7-21.7a3.15,3.15,0,0,0-4.45,4.45L215.76,236A3.16,3.16,0,0,0,218,237a3.12,3.12,0,0,0,2.22-.93A3.15,3.15,0,0,0,220.22,231.57Z"/><path class="cls-1" d="M251,224.57l-21.72-21.7a3.15,3.15,0,0,0-4.45,4.45L246.58,229a3.15,3.15,0,1,0,4.46-4.45Z"/><path class="cls-1" d="M281.84,217.57l-21.68-21.71a3.15,3.15,0,0,0-4.45,4.45L277.38,222a3.16,3.16,0,0,0,2.23.92,3.11,3.11,0,0,0,2.22-.92A3.15,3.15,0,0,0,281.84,217.57Z"/><path class="cls-1" d="M312.62,210.58l-21.69-21.71a3.15,3.15,0,0,0-4.45,4.45L308.17,215a3.15,3.15,0,0,0,4.45-4.45Z"/></svg>